<?xml version="1.0" encoding="UTF-8" standalone="no"?>
<!DOCTYPE svg PUBLIC "-//W3C//DTD SVG 1.1//EN" "http://www.w3.org/Graphics/SVG/1.1/DTD/svg11.dtd">
<svg width="192.00" height="192.00" viewBox="0.00 0.00 800.00 800.00" xmlns="http://www.w3.org/2000/svg" xmlns:xlink="http://www.w3.org/1999/xlink">
<g stroke-linecap="round" transform="translate(-5.00, -79.00)" id="Layer_2">
<path d="M462.53,418.25 C456.38,421.87 440.05,428.36 433.09,429.94 C426.13,431.49 408.59,432.61 401.48,431.97 C394.38,431.29 377.35,426.94 370.79,424.13 C364.25,421.29 349.40,411.89 344.03,407.18 C338.68,402.46 327.46,388.93 323.81,382.80 C320.19,376.66 313.70,360.32 312.12,353.37 C310.57,346.40 309.44,328.86 310.09,321.76 C310.77,314.65 315.12,297.63 317.93,291.07 C320.77,284.52 330.17,269.67 334.87,264.30 C339.60,258.96 353.13,247.74 359.26,244.08 C365.40,240.46 381.73,233.97 388.69,232.39 C395.66,230.84 413.20,229.72 420.30,230.36 C427.40,231.04 444.43,235.39 450.99,238.20 C457.54,241.05 472.39,250.44 477.75,255.15 C483.10,259.87 494.32,273.40 497.97,279.53 C501.60,285.67 508.09,302.01 509.67,308.96 C511.22,315.93 512.34,333.47 511.69,340.57 C511.02,347.68 506.66,364.71 503.85,371.26 C501.01,377.81 491.61,392.66 486.91,398.03 C482.19,403.37 468.66,414.59 462.53,418.25 Z" fill="none" stroke="rgb(0, 0, 0)" stroke-width="5.00" stroke-opacity="1.00" stroke-linejoin="round"/>
<path d="M246.95,756.74 C246.17,746.86 245.68,738.44 246.10,728.51 C246.73,715.52 249.01,683.00 251.08,667.34 C251.93,661.51 255.42,643.64 257.21,636.04 C259.17,628.64 263.45,614.22 265.75,607.19 C268.20,600.09 273.94,585.89 277.06,578.85 C280.32,571.91 287.20,558.54 290.79,552.16 C294.56,545.75 303.49,532.77 308.38,526.62 C313.29,520.45 324.37,508.33 328.75,504.33 C334.22,499.37 348.17,489.19 355.00,485.18 C362.77,480.65 375.33,475.35 384.02,473.07 C391.89,471.04 408.62,468.98 415.40,469.36 C423.45,469.84 439.04,472.83 446.72,475.35 C454.12,477.82 468.02,484.96 474.78,489.39 C481.53,493.83 493.51,503.49 499.47,509.44 C504.65,514.71 514.70,526.51 519.43,532.87 C524.79,540.09 530.49,549.10 535.80,558.54 C539.29,565.12 545.94,578.85 549.06,585.89 C553.26,596.02 556.22,604.06 559.55,614.22 C561.75,621.37 565.79,636.04 567.58,643.64 C569.22,651.44 571.53,664.33 572.96,675.17 C574.37,687.77 577.04,729.65 577.06,737.34 C577.07,744.19 576.20,754.78 576.05,756.74" fill="none" stroke="rgb(0, 0, 0)" stroke-width="5.00" stroke-opacity="1.00" stroke-linejoin="round"/>
<path d="M575.84,756.74 C576.63,746.86 577.11,738.44 576.69,728.51 C576.07,715.52 573.78,683.00 571.72,667.34 C570.86,661.51 567.38,643.64 565.58,636.04 C563.62,628.64 559.35,614.22 557.04,607.19 C554.59,600.09 548.85,585.89 545.74,578.85 C542.47,571.91 535.60,558.54 532.01,552.16 C528.23,545.75 519.30,532.77 514.42,526.62 C509.50,520.45 498.43,508.33 494.04,504.33 C488.57,499.37 474.62,489.19 467.79,485.18 C460.02,480.65 447.47,475.35 438.77,473.07 C430.91,471.04 414.18,468.98 407.40,469.36 C399.34,469.84 383.76,472.83 376.07,475.35 C368.67,477.82 354.78,484.96 348.02,489.39 C341.26,493.83 329.29,503.49 323.32,509.44 C318.15,514.71 308.10,526.51 303.37,532.87 C298.01,540.09 292.30,549.10 286.99,558.54 C283.50,565.12 276.85,578.85 273.74,585.89 C269.54,596.02 266.57,604.06 263.24,614.22 C261.04,621.37 257.01,636.04 255.21,643.64 C253.58,651.44 251.27,664.33 249.84,675.17 C248.42,687.77 245.75,729.65 245.73,737.34 C245.73,744.19 246.59,754.78 246.75,756.74" fill="none" stroke="rgb(0, 0, 0)" stroke-width="5.00" stroke-opacity="1.00" stroke-linejoin="round"/>
<path d="M248.32,757.12 L574.47,757.12" fill="none" stroke="rgb(0, 0, 0)" stroke-width="4.00" stroke-opacity="1.00" stroke-linejoin="round"/>
<path d="M572.78,757.12 L250.02,757.12" fill="none" stroke="rgb(0, 0, 0)" stroke-width="4.00" stroke-opacity="1.00" stroke-linejoin="round"/>
<path d="M582.50,176.50 L621.50,176.50 L621.50,301.50 L582.50,301.50 L582.50,176.50 Z" fill="none" stroke="rgb(0, 0, 0)" stroke-width="2.50" stroke-opacity="1.00" stroke-linejoin="miter"/>
<path d="M539.50,218.50 L663.50,218.50 L663.50,255.50 L539.50,255.50 L539.50,218.50 Z" fill="none" stroke="rgb(0, 0, 0)" stroke-width="2.50" stroke-opacity="1.00" stroke-linejoin="miter"/>
<path d="M585.01,244.89 C585.03,244.93 584.88,244.99 584.55,245.07 C581.11,245.88 573.27,247.74 571.33,248.05 C565.57,248.96 562.62,247.50 561.69,246.63 C561.34,245.44 561.30,244.76 561.71,244.19 C562.71,242.84 565.44,240.87 567.51,240.06 C569.62,239.26 574.02,238.49 575.99,238.60 C577.94,238.75 580.64,240.00 581.28,241.12 C581.94,242.40 580.49,245.36 578.86,246.40 C577.86,246.99 573.95,248.19 570.34,248.10 C567.55,248.01 559.91,245.87 557.44,244.85 C552.25,242.68 551.06,240.29 550.77,239.09 C551.59,237.75 555.17,237.17 558.59,237.28 C559.52,237.31 560.84,237.15 562.59,236.85" fill="none" stroke="rgb(0, 0, 0)" stroke-width="10.00" stroke-opacity="1.00" stroke-linejoin="round"/>
<path d="M547.97,231.08 C547.97,231.08 548.13,231.33 548.13,231.33 C548.13,231.33 547.98,231.60 547.98,231.60 C546.97,232.06 545.71,231.64 545.48,231.02 C545.28,230.46 545.14,228.72 545.05,226.64 C545.05,226.64 544.40,230.77 544.40,230.77 C544.40,230.77 542.87,225.92 542.87,225.92 C542.87,225.92 542.34,228.73 542.34,228.73 C542.34,228.73 543.13,224.99 543.13,224.99 C543.13,224.99 542.26,223.77 542.26,223.77 C542.26,223.77 543.34,223.17 543.34,223.17 C543.34,223.17 547.39,222.82 547.39,222.82 C547.39,222.82 545.17,222.58 545.17,222.58 C545.17,222.58 565.84,222.96 565.84,222.96 C565.84,222.96 555.29,224.06 555.29,224.06 C555.29,224.06 585.06,223.04 585.06,223.04 C585.06,223.04 553.40,225.75 553.40,225.75 C553.40,225.75 590.49,222.43 590.49,222.43 C588.42,224.15 552.92,230.40 550.33,230.89 C550.33,230.89 589.02,226.80 589.02,226.80 C589.02,226.80 549.72,232.97 549.72,232.97 C549.72,232.97 598.55,230.50 598.55,230.50 C596.86,231.02 580.93,234.50 574.10,236.11 C564.09,238.45 555.51,238.77 553.26,237.95 C556.54,236.19 564.35,237.03 565.65,237.61 C563.89,238.33 558.85,236.87 555.58,235.33 C553.50,234.34 552.27,233.83 551.32,233.55 C550.45,234.74 550.20,235.70 550.60,237.18 C551.43,240.21 552.95,242.99 553.87,243.65 C553.87,243.65 554.23,243.54 554.23,243.54 C554.23,243.54 554.11,242.63 554.11,242.63" fill="none" stroke="rgb(0, 0, 0)" stroke-width="10.00" stroke-opacity="1.00" stroke-linejoin="round"/>
<path d="M549.31,227.60 C547.84,227.38 546.93,227.36 546.50,227.62 C545.55,228.27 544.87,231.62 544.56,236.23 C544.28,240.93 544.65,245.55 545.42,246.63 C546.44,246.07 546.86,245.45 546.90,244.15 C547.01,239.31 544.64,234.10 542.50,230.35 C542.44,230.37 543.27,237.44 543.58,240.72 C543.91,243.75 544.91,248.21 545.25,249.58 C545.25,249.58 545.33,248.40 545.33,248.40" fill="none" stroke="rgb(0, 0, 0)" stroke-width="10.00" stroke-opacity="1.00" stroke-linejoin="round"/>
<path d="M547.66,242.94 C547.38,243.33 547.16,243.64 546.98,243.88 C545.74,245.56 542.92,250.57 542.37,251.85 C542.37,251.85 545.53,249.56 545.53,249.56 C545.53,249.56 545.16,251.12 545.16,251.12 C545.16,251.12 546.92,250.46 546.92,250.46 C546.92,250.46 574.68,247.68 574.68,247.68 C574.68,247.68 551.63,249.47 551.63,249.47 C551.63,249.47 591.35,246.51 591.35,246.51 C591.35,246.51 556.60,248.76 556.60,248.76 C556.60,248.76 581.34,249.18 581.34,249.18 C581.34,249.18 563.73,250.42 563.73,250.42 C563.73,250.42 579.41,249.19 579.41,249.19 C579.41,249.19 576.96,249.76 576.96,249.76 C584.42,248.15 598.78,248.48 599.29,248.48 C599.29,248.48 562.35,249.95 562.35,249.95 C562.35,249.95 582.71,241.65 582.71,241.65 C582.71,241.65 554.31,246.25 554.31,246.25 C554.31,246.25 594.53,240.61 594.53,240.61 C590.47,242.91 564.36,244.99 561.75,245.06 C561.47,244.94 595.71,241.47 600.87,241.47 C601.78,241.47 605.51,241.56 606.62,241.59" fill="none" stroke="rgb(0, 0, 0)" stroke-width="10.00" stroke-opacity="1.00" stroke-linejoin="round"/>
<path d="M658.93,221.49 C658.47,222.04 658.21,222.37 658.14,222.48 C657.89,222.90 658.36,238.79 658.73,240.33 C659.16,239.02 659.82,232.31 659.45,229.44 C659.33,228.52 658.40,225.93 658.63,223.07 C658.94,222.43 647.99,224.56 639.97,225.51 C632.73,226.21 618.97,227.19 617.21,227.10 C618.11,226.70 618.76,226.43 619.18,226.30 C619.59,226.16 620.34,225.96 621.43,225.71" fill="none" stroke="rgb(0, 0, 0)" stroke-width="10.00" stroke-opacity="1.00" stroke-linejoin="round"/>
<path d="M632.21,224.46 C631.41,224.56 630.12,224.66 624.13,224.88 C603.20,225.42 586.22,226.30 583.81,226.28 C583.81,226.28 607.97,224.69 607.97,224.69 C607.97,224.69 587.07,224.95 587.07,224.95 C587.51,223.82 610.66,223.36 611.58,223.34 C611.58,223.34 592.47,224.75 592.47,224.75 C592.47,224.75 635.98,224.31 635.98,224.31 C635.98,224.31 611.29,223.52 611.29,223.52 C611.29,223.52 631.88,223.45 631.88,223.45 C631.88,223.45 613.54,224.41 613.54,224.41 C613.54,224.41 653.46,222.86 653.46,222.86 C653.46,222.86 649.11,224.34 649.11,224.34 C649.11,224.34 649.43,224.96 649.43,224.96" fill="none" stroke="rgb(0, 0, 0)" stroke-width="10.00" stroke-opacity="1.00" stroke-linejoin="round"/>
<path d="M650.90,224.61 C650.84,224.71 650.79,224.77 650.75,224.80 C650.39,225.23 650.80,227.95 651.85,232.63 C652.36,234.92 653.09,240.28 654.08,244.12 C654.08,244.12 653.36,241.14 653.36,241.14" fill="none" stroke="rgb(0, 0, 0)" stroke-width="10.00" stroke-opacity="1.00" stroke-linejoin="round"/>
<path d="M654.34,234.70 C654.52,236.60 656.71,240.98 659.26,244.90 C660.02,246.07 660.41,246.87 660.45,247.23 C660.45,247.23 658.49,245.95 658.49,245.95" fill="none" stroke="rgb(0, 0, 0)" stroke-width="10.00" stroke-opacity="1.00" stroke-linejoin="round"/>
<path d="M659.22,242.35 C659.22,242.35 657.94,243.35 657.94,243.35 C657.70,245.04 658.80,249.65 658.87,250.17 C658.88,250.18 659.70,250.73 659.84,250.89 C659.84,250.89 660.03,252.26 660.03,252.26 C660.03,252.26 658.78,251.65 658.78,251.65" fill="none" stroke="rgb(0, 0, 0)" stroke-width="10.00" stroke-opacity="1.00" stroke-linejoin="round"/>
<path d="M659.33,248.58 C658.69,248.88 656.96,249.42 655.62,249.63 C651.11,250.31 629.05,249.65 627.98,249.69 C627.98,249.69 652.38,251.13 652.38,251.13 C652.38,251.13 631.09,250.85 631.09,250.85 C631.09,250.85 654.64,251.15 654.64,251.15 C654.64,251.15 594.09,249.50 594.09,249.50 C594.09,249.50 623.49,248.48 623.49,248.48 C623.49,248.48 586.55,251.56 586.55,251.56 C586.55,251.56 607.04,251.17 607.04,251.17 C598.08,253.14 582.01,252.62 581.20,252.55 C581.20,252.55 603.03,250.71 603.03,250.71 C603.03,250.71 582.61,247.40 582.61,247.40 C582.99,246.64 599.59,244.82 607.93,243.94 C612.14,243.51 619.10,242.77 619.06,242.77 C605.50,243.74 581.13,242.96 577.44,242.19 C577.44,242.19 625.81,236.01 625.81,236.01 C622.49,236.72 609.15,237.40 600.22,237.43 C579.28,237.17 575.64,235.34 574.44,234.59 C580.68,230.78 627.25,228.98 628.37,229.06 C628.37,229.06 590.98,232.62 590.98,232.62 C604.81,231.69 636.01,229.98 641.64,230.88 C641.64,230.88 642.47,231.85 642.47,231.85 C639.85,233.83 607.53,241.05 606.55,241.50 C606.55,241.50 647.81,236.48 647.81,236.48 C647.81,236.48 607.34,242.91 607.34,242.91 C607.34,242.91 649.47,239.52 649.47,239.52 C649.47,239.52 628.25,244.19 628.25,244.19 C628.25,244.19 655.10,240.92 655.10,240.92 C648.96,241.46 636.88,240.65 633.13,239.59 C631.03,238.95 630.50,238.28 630.06,237.25 C630.94,235.45 636.67,232.24 639.72,231.70 C641.16,231.46 642.40,231.57 643.24,231.88 C642.47,233.37 641.83,234.07 640.65,234.39 C639.86,234.60 639.08,234.81 638.29,235.02 C638.29,235.02 649.07,235.62 649.07,235.62 C649.07,235.62 645.18,230.96 645.18,230.96 C645.18,230.96 645.45,229.91 645.45,229.91 C644.06,230.40 643.36,231.69 642.80,232.86 C642.70,233.09 642.53,233.46 642.31,233.97" fill="none" stroke="rgb(0, 0, 0)" stroke-width="10.00" stroke-opacity="1.00" stroke-linejoin="round"/>
<path d="M606.46,192.22 C606.23,192.46 602.76,192.70 601.08,192.23 C599.75,191.84 596.83,189.62 595.88,188.23 C595.81,188.12 594.31,185.44 594.21,185.33 C594.01,185.55 588.72,184.56 587.48,183.22 C587.40,183.14 587.28,183.01 587.10,182.84 C586.94,182.33 586.84,181.45 587.00,181.28 C587.05,181.22 587.22,181.24 587.49,181.33" fill="none" stroke="rgb(0, 0, 0)" stroke-width="10.00" stroke-opacity="1.00" stroke-linejoin="round"/>
<path d="M587.65,181.46 C587.65,181.46 586.77,180.32 586.77,180.32 C586.77,180.32 586.19,181.04 586.19,181.04" fill="none" stroke="rgb(0, 0, 0)" stroke-width="10.00" stroke-opacity="1.00" stroke-linejoin="round"/>
<path d="M612.77,193.37 C612.55,193.28 610.55,192.85 609.03,192.54 C607.15,192.12 603.19,190.60 601.82,189.78 C600.39,188.89 599.03,187.09 599.17,186.27 C599.61,184.17 602.44,183.99 602.69,184.00 C602.69,184.00 589.57,181.99 589.57,181.99 C589.57,181.99 599.54,182.53 599.54,182.53 C598.86,182.41 597.85,182.29 596.89,182.29 C596.43,182.29 595.31,182.32 593.53,182.38" fill="none" stroke="rgb(0, 0, 0)" stroke-width="10.00" stroke-opacity="1.00" stroke-linejoin="round"/>
<path d="M591.07,181.95 C591.07,181.95 589.67,182.19 589.67,182.19 C591.95,182.18 599.94,181.78 602.70,181.97 C605.64,182.19 608.95,182.98 608.88,183.06 C608.17,182.89 607.50,182.36 607.45,182.06 C607.41,181.74 608.10,181.30 608.97,181.26 C609.95,181.23 612.40,182.06 612.75,182.12 C612.75,182.12 615.66,182.67 615.66,182.67 C615.66,182.67 615.10,183.03 615.10,183.03" fill="none" stroke="rgb(0, 0, 0)" stroke-width="10.00" stroke-opacity="1.00" stroke-linejoin="round"/>
<path d="M616.66,181.28 C616.91,181.73 617.18,182.53 617.36,182.76 C617.57,183.03 617.47,181.99 617.17,181.49 C616.55,181.83 616.48,184.41 616.25,188.66 C616.22,189.49 616.32,190.87 616.37,191.51 C616.37,191.51 616.56,187.62 616.56,187.62 C616.08,187.82 615.17,200.30 615.53,201.21 C615.57,201.29 615.64,201.38 615.74,201.47 C615.74,201.47 614.82,193.72 614.82,193.72 C615.45,197.35 615.79,199.72 616.03,203.21 C616.27,206.72 617.07,210.12 617.82,211.77 C617.74,211.40 617.67,211.14 617.63,210.96 C617.59,210.79 617.50,210.47 617.37,210.01" fill="none" stroke="rgb(0, 0, 0)" stroke-width="10.00" stroke-opacity="1.00" stroke-linejoin="round"/>
<path d="M615.47,199.92 C615.22,200.00 614.94,200.22 614.77,200.55 C613.53,203.26 614.09,218.54 614.27,219.03 C614.27,219.03 616.93,211.55 616.93,211.55 C616.93,211.55 617.05,219.81 617.05,219.81 C617.05,219.81 615.37,218.49 615.37,218.49" fill="none" stroke="rgb(0, 0, 0)" stroke-width="10.00" stroke-opacity="1.00" stroke-linejoin="round"/>
<path d="M612.17,211.48 C611.72,211.56 611.44,211.61 611.33,211.62 C610.54,211.71 608.62,210.79 607.35,209.27 C603.80,204.95 596.57,192.00 595.82,191.66 C595.70,191.60 595.40,191.54 594.92,191.46 C594.92,191.46 592.51,203.50 592.51,203.50 C592.51,203.50 589.08,189.29 589.08,189.29 C588.61,190.08 588.32,194.47 588.40,194.63 C588.50,194.80 588.64,194.31 588.71,193.67" fill="none" stroke="rgb(0, 0, 0)" stroke-width="10.00" stroke-opacity="1.00" stroke-linejoin="round"/>
<path d="M587.29,187.24 C587.29,187.24 586.93,187.03 586.93,187.03 C586.76,187.06 583.64,190.06 588.12,198.00 C588.24,198.20 588.37,198.41 588.50,198.62 C588.50,198.62 588.35,188.62 588.35,188.62 C588.35,188.62 591.70,217.27 591.70,217.27 C591.70,217.27 592.12,204.04 592.12,204.04 C592.12,204.04 587.43,211.68 587.43,211.68 C587.43,211.68 588.08,201.66 588.08,201.66 C584.62,214.23 586.10,216.45 586.49,216.82 C587.24,215.78 587.53,214.94 587.54,213.26 C587.57,208.85 587.96,206.34 588.12,205.77 C588.12,205.77 592.16,220.98 592.16,220.98 C593.02,220.66 595.23,216.28 596.74,213.26 C598.50,209.87 601.00,205.79 601.58,205.21 C602.45,205.75 602.59,209.17 602.41,211.17 C602.23,213.13 601.50,217.69 601.36,218.60 C601.57,217.97 601.30,204.65 601.91,201.10 C602.21,199.38 603.22,196.26 604.15,195.32 C605.30,196.74 606.04,204.88 605.77,210.24 C605.29,217.91 605.35,219.51 605.48,220.34 C606.03,219.22 605.01,208.19 605.28,204.69 C605.42,203.05 606.11,199.36 606.68,198.87 C608.97,202.59 607.54,219.19 607.15,223.72 C607.15,223.72 605.58,223.25 605.58,223.25" fill="none" stroke="rgb(0, 0, 0)" stroke-width="10.00" stroke-opacity="1.00" stroke-linejoin="round"/>
<path d="M587.71,245.65 C586.88,246.91 586.67,251.23 587.36,263.72 C587.73,271.34 587.71,271.52 587.63,271.69 C587.63,271.69 588.23,251.55 588.23,251.55 C588.23,251.55 590.19,273.53 590.19,273.53 C590.06,272.95 589.97,272.56 589.92,272.36 C589.86,272.17 589.78,271.91 589.67,271.57" fill="none" stroke="rgb(0, 0, 0)" stroke-width="10.00" stroke-opacity="1.00" stroke-linejoin="round"/>
<path d="M574.98,243.02 C574.81,243.00 572.57,243.47 570.85,243.84 C563.21,245.48 560.68,246.96 560.17,247.27 C560.63,248.06 560.91,248.31 561.62,248.36 C565.02,248.65 569.36,248.18 570.17,248.23 C569.72,249.44 561.22,250.23 560.12,249.74 C560.12,249.74 564.92,248.26 564.92,248.26 C564.92,248.26 558.22,249.81 558.22,249.81 C558.22,249.81 569.02,248.03 569.02,248.03 C568.65,247.77 568.01,247.60 567.81,247.48 C567.70,247.40 567.49,247.20 567.19,246.88" fill="none" stroke="rgb(0, 0, 0)" stroke-width="10.00" stroke-opacity="1.00" stroke-linejoin="round"/>
<path d="M601.44,244.48 C601.25,244.86 599.03,248.08 598.43,249.46 C597.19,252.42 592.69,265.59 591.33,268.12 C590.47,266.89 591.16,258.56 592.72,255.09 C594.40,251.46 595.77,250.46 596.15,250.25 C597.41,251.06 598.05,255.03 598.20,258.57 C598.16,264.47 598.14,270.99 598.42,271.78 C599.22,270.62 601.30,259.20 603.37,254.79 C604.05,253.38 605.34,251.35 606.09,251.01 C606.66,252.90 603.56,272.50 603.44,274.93 C603.41,275.71 603.51,276.05 603.75,276.31 C604.11,275.35 607.15,259.79 609.57,256.79 C609.68,256.66 609.82,256.50 609.99,256.29 C610.83,256.57 611.15,256.83 611.28,257.51 C611.99,261.38 611.95,267.20 611.30,274.31 C611.48,273.14 612.34,265.41 613.18,262.73 C613.86,260.58 615.49,257.41 616.06,257.18 C617.37,259.44 616.11,269.25 615.25,272.57 C615.25,272.57 615.55,260.65 615.55,260.65 C615.55,260.65 614.09,262.92 614.09,262.92" fill="none" stroke="rgb(0, 0, 0)" stroke-width="10.00" stroke-opacity="1.00" stroke-linejoin="round"/>
<path d="M614.97,256.93 C615.00,256.94 615.01,257.03 615.01,257.19 C614.94,260.75 615.96,278.97 616.15,280.87 C616.20,281.45 617.37,289.72 617.20,289.84 C617.20,289.84 615.44,288.58 615.44,288.58" fill="none" stroke="rgb(0, 0, 0)" stroke-width="10.00" stroke-opacity="1.00" stroke-linejoin="round"/>
<path d="M613.99,271.82 C613.99,271.82 613.56,272.04 613.56,272.04 C613.56,272.04 618.00,293.68 618.00,293.68 C617.68,294.20 617.73,295.11 618.18,295.81 C618.64,296.52 617.57,296.74 617.33,296.81" fill="none" stroke="rgb(0, 0, 0)" stroke-width="10.00" stroke-opacity="1.00" stroke-linejoin="round"/>
<path d="M617.41,295.04 C617.30,295.43 616.84,296.13 616.32,296.61 C614.98,297.83 610.30,297.88 608.32,296.36 C606.93,295.28 606.09,293.83 605.97,293.07 C605.36,288.74 602.78,281.84 602.56,280.32 C602.56,280.32 604.67,295.12 604.67,295.12 C604.67,295.12 608.28,283.23 608.28,283.23 C609.56,283.09 612.03,294.09 612.13,294.25 C614.37,294.47 605.80,280.22 605.40,279.99 C605.40,279.99 603.68,287.46 603.68,287.46 C602.29,287.28 601.44,286.83 600.33,285.56 C598.78,283.77 596.83,281.23 596.11,280.76 C595.57,281.99 595.36,282.78 595.35,283.90 C595.35,284.34 595.29,285.84 595.27,286.45 C595.19,286.11 595.10,285.77 595.02,285.43 C594.96,285.14 594.90,284.84 594.83,284.55" fill="none" stroke="rgb(0, 0, 0)" stroke-width="10.00" stroke-opacity="1.00" stroke-linejoin="round"/>
<path d="M593.66,276.19 C593.66,276.19 592.44,273.58 592.44,273.58 C591.66,274.67 590.69,280.00 589.95,283.00 C589.35,285.41 589.09,285.93 588.75,286.50 C587.70,285.87 588.30,278.36 588.58,275.43 C588.58,275.43 588.49,285.39 588.49,285.39 C588.49,285.39 589.29,277.14 589.29,277.14 C589.29,277.14 591.05,288.26 591.05,288.26 C591.05,288.26 591.19,286.89 591.19,286.89" fill="none" stroke="rgb(0, 0, 0)" stroke-width="10.00" stroke-opacity="1.00" stroke-linejoin="round"/>
<path d="M589.17,280.16 C588.37,281.90 588.84,295.63 588.75,295.96 C588.52,296.64 586.85,296.83 586.66,296.85 C586.82,298.18 598.16,293.41 599.33,292.88 C599.90,293.92 595.90,296.43 595.55,296.31 C595.55,296.31 603.44,294.43 603.44,294.43 C603.44,294.43 600.32,296.01 600.32,296.01 C600.32,296.01 607.20,296.14 607.20,296.14 C607.20,296.14 604.95,295.84 604.95,295.84" fill="none" stroke="rgb(0, 0, 0)" stroke-width="10.00" stroke-opacity="1.00" stroke-linejoin="round"/>
<path d="M419.07,340.04 C417.17,341.52 415.77,342.35 412.49,342.94 C409.01,343.53 404.73,343.66 402.29,343.17 C399.81,342.65 395.73,340.77 393.60,339.16 C391.29,337.35 387.87,332.42 386.79,329.01 C386.30,327.39 385.82,323.47 385.97,322.08 C386.15,320.72 387.42,317.83 388.31,316.63 C390.29,314.10 396.38,310.28 400.25,309.19 C403.81,308.22 409.75,307.63 412.13,307.78 C414.95,308.01 417.84,308.74 422.36,310.52 C423.89,311.16 424.87,312.22 425.13,313.54 C425.32,314.73 424.78,320.43 424.67,321.52" fill="none" stroke="rgb(0, 0, 0)" stroke-width="150.00" stroke-opacity="1.00" stroke-linejoin="round"/>
<path d="M401.76,311.21 C401.76,311.21 405.03,307.24 405.03,307.24" fill="none" stroke="rgb(0, 0, 0)" stroke-width="150.00" stroke-opacity="1.00" stroke-linejoin="round"/>
<path d="M406.91,308.46 C406.91,308.46 410.47,306.89 410.47,306.89 C410.47,306.89 406.47,306.86 406.47,306.86" fill="none" stroke="rgb(0, 0, 0)" stroke-width="150.00" stroke-opacity="1.00" stroke-linejoin="round"/>
<path d="M391.87,301.53 C390.54,300.14 387.47,297.00 387.42,296.47 C387.38,296.06 390.20,293.86 391.28,292.99 C391.92,292.56 398.46,288.97 398.30,288.71 C397.67,287.69 395.91,288.94 394.72,288.82 C393.10,288.66 392.23,288.22 392.12,287.51 C392.04,287.16 395.83,285.39 395.62,285.31 C395.00,285.07 391.52,286.13 389.31,287.18 C391.30,285.41 392.23,284.14 391.06,284.45 C390.19,284.68 385.32,287.40 383.75,288.33 C385.48,287.51 386.84,286.83 388.83,285.79 C390.81,284.75 392.13,284.22 393.80,283.72" fill="none" stroke="rgb(0, 0, 0)" stroke-width="100.00" stroke-opacity="1.00" stroke-linejoin="round"/>
<path d="M376.50,296.09 C374.89,295.58 374.05,295.18 373.99,294.92 C373.93,294.64 381.17,289.55 384.80,287.58 C388.92,285.37 394.44,283.17 396.84,282.87 C397.91,282.77 402.14,282.62 402.78,282.81 C403.54,283.03 408.24,285.40 409.94,286.25" fill="none" stroke="rgb(0, 0, 0)" stroke-width="100.00" stroke-opacity="1.00" stroke-linejoin="round"/>
<path d="M394.94,289.98 C393.22,289.27 391.05,288.20 390.81,287.72 C390.53,287.11 398.13,283.30 398.97,282.95 C400.85,282.20 405.49,281.35 407.84,281.44 C409.14,281.57 412.40,281.87 412.88,282.23 C413.46,282.67 416.02,286.65 417.17,288.39" fill="none" stroke="rgb(0, 0, 0)" stroke-width="100.00" stroke-opacity="1.00" stroke-linejoin="round"/>
<path d="M398.33,286.86 C397.28,285.45 396.25,283.42 396.76,282.74 C397.79,281.44 405.52,280.86 408.69,281.00 C411.45,281.17 412.95,281.66 414.93,283.12 C415.50,283.55 416.25,284.10 417.19,284.76" fill="none" stroke="rgb(0, 0, 0)" stroke-width="100.00" stroke-opacity="1.00" stroke-linejoin="round"/>
<path d="M398.35,287.76 C397.34,286.98 395.01,285.25 395.06,284.94 C395.19,284.32 402.57,281.85 406.02,281.61 C408.87,281.43 416.97,281.95 420.13,282.50 C421.75,282.80 424.04,283.67 425.57,284.59 C428.74,286.56 429.74,289.84 430.00,291.31" fill="none" stroke="rgb(0, 0, 0)" stroke-width="100.00" stroke-opacity="1.00" stroke-linejoin="round"/>
<path d="M409.18,286.61 C406.94,286.20 403.92,285.39 403.36,284.73 C402.84,284.10 403.94,281.12 404.71,280.75 C405.10,280.58 414.91,281.05 416.22,281.65 C416.64,281.85 423.25,287.73 423.18,287.91 C423.12,288.03 422.50,288.02 421.34,287.89" fill="none" stroke="rgb(0, 0, 0)" stroke-width="100.00" stroke-opacity="1.00" stroke-linejoin="round"/>
<path d="M404.81,284.46 C403.79,282.69 403.27,281.60 403.26,281.18 C403.25,280.51 408.00,279.03 409.17,278.91 C411.62,278.71 420.02,281.34 420.90,281.57 C421.45,281.72 423.73,282.31 424.46,283.19 C425.19,284.07 426.75,287.21 427.75,289.45" fill="none" stroke="rgb(0, 0, 0)" stroke-width="100.00" stroke-opacity="1.00" stroke-linejoin="round"/>
<path d="M415.33,282.82 C416.25,282.50 416.87,282.32 417.17,282.27 C418.69,282.07 435.35,286.35 435.64,286.52 C436.75,287.21 437.59,288.04 438.14,289.00 C438.40,289.46 438.96,292.67 439.37,294.37" fill="none" stroke="rgb(0, 0, 0)" stroke-width="100.00" stroke-opacity="1.00" stroke-linejoin="round"/>
<path d="M419.69,282.35 C417.86,281.47 416.94,280.99 416.94,280.93 C417.19,279.27 429.69,287.06 428.60,287.96 C428.13,288.19 419.81,282.10 417.75,280.33 C421.02,281.63 428.18,283.08 428.48,283.27 C429.50,283.93 432.35,287.84 432.57,288.04 C433.23,288.62 434.35,289.30 435.94,290.07 C436.45,290.31 437.39,290.71 438.77,291.26" fill="none" stroke="rgb(0, 0, 0)" stroke-width="100.00" stroke-opacity="1.00" stroke-linejoin="round"/>
<path d="M430.43,285.60 C431.38,285.48 432.05,285.45 432.43,285.52 C436.30,286.20 446.70,292.42 449.28,294.97 C450.79,296.53 451.09,297.94 450.53,300.74 C450.35,301.62 450.14,302.67 449.90,303.90" fill="none" stroke="rgb(0, 0, 0)" stroke-width="100.00" stroke-opacity="1.00" stroke-linejoin="round"/>
<path d="M443.26,291.09 C445.63,293.08 450.95,297.56 452.93,299.86 C454.35,301.55 456.08,304.36 456.83,306.21 C457.62,308.33 457.57,310.11 456.66,312.74 C456.51,313.17 454.66,318.55 454.15,320.01" fill="none" stroke="rgb(0, 0, 0)" stroke-width="100.00" stroke-opacity="1.00" stroke-linejoin="round"/>
<path d="M450.39,302.67 C452.34,305.00 456.58,311.70 457.43,313.71 C458.05,315.20 458.73,317.86 458.99,319.74 C459.24,322.00 458.93,323.54 457.79,325.60 C457.61,325.90 455.26,330.17 454.63,331.31" fill="none" stroke="rgb(0, 0, 0)" stroke-width="100.00" stroke-opacity="1.00" stroke-linejoin="round"/>
<path d="M459.07,310.69 C458.45,308.77 457.25,304.95 457.24,304.75 C457.26,304.23 460.44,313.87 460.68,316.34 C460.97,319.55 459.60,323.44 459.28,324.37" fill="none" stroke="rgb(0, 0, 0)" stroke-width="100.00" stroke-opacity="1.00" stroke-linejoin="round"/>
<path d="M460.18,313.05 C460.24,315.15 461.64,322.27 461.43,325.45 C461.10,330.08 458.20,339.60 456.26,344.47 C455.16,347.20 452.19,352.28 449.59,353.56 C449.04,353.82 447.94,354.16 446.30,354.58" fill="none" stroke="rgb(0, 0, 0)" stroke-width="100.00" stroke-opacity="1.00" stroke-linejoin="round"/>
<path d="M458.79,331.72 C458.94,334.89 459.27,341.39 458.54,343.81 C457.86,345.96 452.57,356.17 451.26,357.46 C450.30,358.40 447.81,359.78 446.15,360.54" fill="none" stroke="rgb(0, 0, 0)" stroke-width="100.00" stroke-opacity="1.00" stroke-linejoin="round"/>
<path d="M452.68,352.94 C453.53,351.66 455.91,348.04 456.59,347.47 C457.79,346.46 458.72,346.06 459.37,346.25 C459.68,346.38 458.36,350.06 458.00,350.74 C457.72,351.25 457.03,352.37 455.94,354.08" fill="none" stroke="rgb(0, 0, 0)" stroke-width="100.00" stroke-opacity="1.00" stroke-linejoin="round"/>
<path d="M462.21,330.83 C462.60,333.04 462.84,335.72 462.55,336.99 C462.38,337.71 461.00,340.57 460.37,341.91" fill="none" stroke="rgb(0, 0, 0)" stroke-width="100.00" stroke-opacity="1.00" stroke-linejoin="round"/>
<path d="M460.10,339.97 C458.47,343.18 456.81,347.01 455.32,349.68 C453.40,353.05 449.62,358.27 446.92,360.80 C444.38,363.15 439.94,366.01 438.95,366.48 C438.46,366.70 437.34,367.17 435.60,367.86" fill="none" stroke="rgb(0, 0, 0)" stroke-width="100.00" stroke-opacity="1.00" stroke-linejoin="round"/>
<path d="M453.42,356.59 C454.02,358.23 454.31,359.31 454.31,359.84 C454.28,361.36 449.17,367.71 446.08,370.13 C444.47,371.36 443.14,371.95 441.26,372.33 C440.71,372.44 440.01,372.59 439.14,372.77" fill="none" stroke="rgb(0, 0, 0)" stroke-width="100.00" stroke-opacity="1.00" stroke-linejoin="round"/>
<path d="M446.91,365.80 C444.89,367.81 443.02,369.33 440.84,370.64 C438.37,372.12 432.00,374.86 428.75,375.86 C425.90,376.72 417.66,378.08 415.61,377.92 C414.37,377.82 411.64,377.19 409.88,376.71" fill="none" stroke="rgb(0, 0, 0)" stroke-width="100.00" stroke-opacity="1.00" stroke-linejoin="round"/>
<path d="M439.60,375.29 C435.58,377.16 433.17,377.90 431.44,378.05 C430.72,378.11 428.37,377.70 427.19,377.53" fill="none" stroke="rgb(0, 0, 0)" stroke-width="100.00" stroke-opacity="1.00" stroke-linejoin="round"/>
<path d="M435.88,375.46 C434.73,375.98 431.61,377.38 430.77,377.71 C427.62,378.95 417.69,380.47 414.70,380.76 C412.71,380.94 409.86,380.64 408.23,380.10 C407.80,379.96 407.19,379.68 406.41,379.26" fill="none" stroke="rgb(0, 0, 0)" stroke-width="100.00" stroke-opacity="1.00" stroke-linejoin="round"/>
<path d="M427.90,378.77 C425.42,379.43 418.70,381.30 416.24,381.32 C414.81,381.30 413.16,380.93 411.82,380.32 C411.54,380.19 411.03,379.93 410.29,379.54" fill="none" stroke="rgb(0, 0, 0)" stroke-width="100.00" stroke-opacity="1.00" stroke-linejoin="round"/>
<path d="M424.93,379.48 C421.89,379.89 412.81,381.08 411.32,381.23 C408.96,381.46 402.51,381.62 401.23,381.05 C400.46,380.70 398.75,379.44 397.62,378.53" fill="none" stroke="rgb(0, 0, 0)" stroke-width="100.00" stroke-opacity="1.00" stroke-linejoin="round"/>
<path d="M409.27,380.36 C408.34,380.50 405.76,380.91 405.11,380.94 C402.69,381.06 396.39,380.21 393.89,379.08 C392.06,378.22 388.95,376.85 388.64,376.67 C387.07,375.71 384.87,372.11 383.92,370.66" fill="none" stroke="rgb(0, 0, 0)" stroke-width="100.00" stroke-opacity="1.00" stroke-linejoin="round"/>
<path d="M364.30,333.39 C363.53,334.44 361.83,336.70 361.57,337.41 C361.09,338.82 361.07,342.29 361.50,343.99 C362.38,347.21 365.76,351.74 368.17,353.50 C370.37,355.02 372.16,356.06 373.23,356.15 C374.84,356.26 377.55,355.46 379.20,354.62" fill="none" stroke="rgb(0, 0, 0)" stroke-width="100.00" stroke-opacity="1.00" stroke-linejoin="round"/>
<path d="M362.44,330.96 C361.36,332.11 360.75,332.94 360.61,333.45 C360.15,335.09 360.33,335.81 361.14,335.63 C361.37,335.58 362.22,331.59 362.53,330.15" fill="none" stroke="rgb(0, 0, 0)" stroke-width="100.00" stroke-opacity="1.00" stroke-linejoin="round"/>
<path d="M365.77,331.35 C365.55,332.53 364.75,336.89 364.68,337.24 C364.28,339.37 364.47,340.52 365.52,342.30 C367.05,344.83 371.57,352.05 372.07,352.82 C372.98,354.16 375.19,356.05 377.10,357.13 C378.02,357.65 381.83,359.66 383.01,360.28" fill="none" stroke="rgb(0, 0, 0)" stroke-width="100.00" stroke-opacity="1.00" stroke-linejoin="round"/>
<path d="M365.57,344.89 C364.45,346.45 362.00,349.66 362.03,350.37 C362.07,351.21 365.38,355.21 365.62,355.54 C366.63,356.81 367.37,358.84 367.66,359.33 C368.74,361.07 380.22,366.24 381.39,366.76" fill="none" stroke="rgb(0, 0, 0)" stroke-width="100.00" stroke-opacity="1.00" stroke-linejoin="round"/>
<path d="M373.51,360.20 C374.90,361.91 378.80,366.65 379.78,367.14 C380.24,367.37 383.63,368.40 385.45,368.99" fill="none" stroke="rgb(0, 0, 0)" stroke-width="100.00" stroke-opacity="1.00" stroke-linejoin="round"/>
<path d="M376.53,364.31 C376.20,365.63 376.41,367.59 377.28,368.57 C378.09,369.46 383.87,371.20 384.95,371.51" fill="none" stroke="rgb(0, 0, 0)" stroke-width="100.00" stroke-opacity="1.00" stroke-linejoin="round"/>
<path d="M375.01,362.85 C374.16,364.36 373.76,365.35 373.79,365.81 C373.85,366.36 377.50,369.57 377.89,369.76 C378.60,370.08 383.36,371.19 385.08,371.59" fill="none" stroke="rgb(0, 0, 0)" stroke-width="100.00" stroke-opacity="1.00" stroke-linejoin="round"/>
<path d="M378.71,366.98 C379.74,369.11 380.57,370.26 382.28,371.67 C384.74,373.65 386.86,375.16 387.92,375.43 C389.53,375.82 391.91,375.36 393.26,374.68" fill="none" stroke="rgb(0, 0, 0)" stroke-width="100.00" stroke-opacity="1.00" stroke-linejoin="round"/>
<path d="M379.79,370.10 C380.70,371.74 382.25,373.93 383.13,374.28 C384.02,374.64 386.19,373.95 387.62,373.25" fill="none" stroke="rgb(0, 0, 0)" stroke-width="100.00" stroke-opacity="1.00" stroke-linejoin="round"/>
<path d="M406.11,531.54 C404.88,531.02 402.34,529.87 401.62,529.76 C398.03,529.23 386.90,531.55 382.67,533.55 C378.19,535.70 367.88,543.42 364.11,547.47 C360.21,551.69 353.74,560.80 349.64,567.73 C347.31,571.69 339.93,586.22 339.90,586.31 C339.45,587.47 340.64,588.33 342.82,588.72 C343.25,588.79 344.19,588.91 345.64,589.09" fill="none" stroke="rgb(0, 0, 0)" stroke-width="100.00" stroke-opacity="1.00" stroke-linejoin="round"/>
<path d="M398.70,535.61 C398.23,535.32 396.86,535.13 394.53,535.12 C390.15,535.13 384.37,536.89 380.11,538.91 C376.74,540.53 370.44,544.13 367.61,546.12 C364.51,548.32 359.48,552.98 357.14,555.80 C352.69,561.23 348.68,569.30 347.40,573.75 C346.70,576.34 346.83,578.53 347.89,579.76 C349.14,581.11 350.98,581.41 352.83,580.70 C353.41,580.46 354.11,580.20 354.92,579.89" fill="none" stroke="rgb(0, 0, 0)" stroke-width="100.00" stroke-opacity="1.00" stroke-linejoin="round"/>
<path d="M401.39,530.93 C400.97,529.66 399.81,528.53 398.18,528.19 C397.64,528.09 393.16,528.09 392.64,528.19 C389.10,528.94 375.71,538.86 370.70,543.48 C365.79,548.03 356.80,559.15 354.13,564.11 C353.66,565.07 354.85,566.42 357.05,567.64 C357.52,567.89 358.49,568.37 359.96,569.09" fill="none" stroke="rgb(0, 0, 0)" stroke-width="100.00" stroke-opacity="1.00" stroke-linejoin="round"/>
<path d="M398.95,531.34 C397.62,530.81 394.61,529.57 393.91,529.61 C387.00,530.02 368.57,546.44 368.88,546.36 C368.91,546.34 387.42,532.01 389.10,530.39 C388.21,530.14 382.81,533.70 379.98,535.59 C374.67,539.12 373.62,539.76 371.65,540.90 C374.77,537.27 387.47,528.58 387.51,528.52 C388.01,527.97 384.25,530.07 383.01,530.70 C382.74,530.83 390.12,526.68 392.24,526.03 C392.99,525.80 393.68,525.72 394.32,525.76 C394.81,525.81 396.09,526.00 398.14,526.34" fill="none" stroke="rgb(0, 0, 0)" stroke-width="100.00" stroke-opacity="1.00" stroke-linejoin="round"/>
<path d="M400.65,525.91 C399.16,525.98 398.21,526.04 397.82,526.07 C394.42,526.38 384.59,530.77 378.02,534.44 C373.05,537.29 363.06,544.63 359.06,548.52 C356.93,550.67 350.86,556.99 350.85,557.83 C350.89,559.47 351.37,560.58 352.29,561.15 C352.62,561.35 355.42,559.50 357.37,558.50" fill="none" stroke="rgb(0, 0, 0)" stroke-width="100.00" stroke-opacity="1.00" stroke-linejoin="round"/>
<path d="M377.19,543.24 C375.92,542.97 375.04,542.86 374.53,542.91 C371.52,543.21 358.44,551.95 354.39,555.42 C349.17,559.92 341.63,568.01 338.64,572.04 C334.80,577.26 330.76,585.61 329.01,591.89 C327.73,596.53 327.66,599.23 327.92,599.82" fill="none" stroke="rgb(0, 0, 0)" stroke-width="100.00" stroke-opacity="1.00" stroke-linejoin="round"/>
<path d="M351.86,583.80 C350.10,583.59 345.21,583.01 344.45,583.04 C342.57,583.14 336.21,586.78 332.91,589.82 C328.15,594.31 320.32,606.63 317.51,612.45 C314.66,618.40 311.11,628.96 310.52,634.19 C310.44,635.11 310.21,638.17 310.56,638.56 C310.86,638.88 313.83,638.66 315.22,638.61" fill="none" stroke="rgb(0, 0, 0)" stroke-width="100.00" stroke-opacity="1.00" stroke-linejoin="round"/>
<path d="M335.67,597.25 C334.24,597.32 332.25,597.52 331.51,597.75 C330.84,597.96 319.81,608.96 319.79,608.95 C319.69,608.82 325.14,599.54 325.36,598.89 C325.88,597.28 326.05,596.32 325.85,596.00 C325.72,595.83 323.84,598.52 323.18,599.44 C323.66,598.07 324.76,596.18 325.83,595.74 C326.90,595.29 330.28,595.32 332.63,595.51" fill="none" stroke="rgb(0, 0, 0)" stroke-width="100.00" stroke-opacity="1.00" stroke-linejoin="round"/>
<path d="M335.59,596.29 C334.11,596.81 333.12,597.23 332.61,597.56 C329.76,599.42 320.45,614.69 318.86,618.03 C315.29,625.62 311.50,637.96 310.74,644.08 C310.25,648.17 310.58,658.60 311.50,665.31 C311.91,668.19 312.59,671.63 312.77,672.51 C312.82,672.74 312.88,673.08 312.97,673.55" fill="none" stroke="rgb(0, 0, 0)" stroke-width="100.00" stroke-opacity="1.00" stroke-linejoin="round"/>
<path d="M311.17,647.39 C310.21,648.62 309.61,649.45 309.37,649.89 C308.91,650.73 302.35,673.02 302.38,674.61 C302.43,676.44 303.20,679.65 303.92,681.66" fill="none" stroke="rgb(0, 0, 0)" stroke-width="100.00" stroke-opacity="1.00" stroke-linejoin="round"/>
<path d="M308.90,665.33 C307.42,664.63 305.46,663.46 305.06,662.78 C304.69,662.11 307.40,648.98 307.29,648.81 C307.19,648.70 302.78,665.31 303.10,664.85 C305.41,661.35 306.85,653.95 306.85,653.56 C306.85,653.56 302.09,670.55 302.09,670.55 C302.09,670.55 303.86,668.47 303.86,668.47 C303.86,668.47 302.58,678.42 302.58,678.42 C302.58,678.42 304.00,674.51 304.00,674.51 C304.00,674.51 300.73,681.74 300.73,681.74 C300.73,681.74 304.61,673.86 304.61,673.86 C303.29,677.87 300.74,684.49 300.65,683.86 C300.56,683.02 301.52,679.93 302.34,678.27 C301.10,682.36 299.33,686.91 299.43,686.45 C299.55,686.02 301.70,679.67 302.26,679.12 C302.62,678.76 303.36,678.68 304.46,678.86" fill="none" stroke="rgb(0, 0, 0)" stroke-width="100.00" stroke-opacity="1.00" stroke-linejoin="round"/>
<path d="M380.17,683.62 C379.06,686.55 378.02,688.54 375.74,690.08 C372.63,692.10 365.74,695.34 362.47,696.29 C358.82,697.33 352.68,698.13 349.58,698.19 C346.98,698.21 341.81,697.51 338.34,696.78 C333.28,695.66 328.27,693.33 324.48,690.10 C321.68,687.64 318.32,683.19 317.66,681.00 C317.05,678.84 316.94,674.62 317.44,672.49 C318.01,670.18 320.87,665.14 323.25,662.23 C325.65,659.35 330.87,654.58 333.76,652.64 C339.45,648.86 352.92,642.96 359.85,641.07 C366.90,639.18 379.79,637.71 387.34,638.30 C391.09,638.60 396.23,639.50 397.69,639.97 C398.85,640.36 403.07,642.88 404.73,644.17 C406.42,645.50 409.77,649.07 410.79,651.75 C411.78,654.50 411.18,660.91 409.74,664.12 C408.41,667.00 405.08,671.23 403.22,673.01 C401.50,674.63 397.67,677.53 396.32,678.26 C392.98,680.00 386.43,681.44 383.11,681.16 C379.38,680.78 373.39,677.84 371.49,676.12 C369.66,674.39 367.43,671.55 366.22,669.12 C365.13,666.87 363.92,662.27 363.85,659.29 C363.81,656.15 364.94,648.52 365.95,645.22 C366.96,642.03 369.90,636.46 371.81,633.77 C375.40,628.81 384.72,620.82 390.44,617.67 C392.97,616.29 398.59,614.10 401.45,613.39 C404.55,612.64 411.38,611.77 414.31,611.77 C417.13,611.80 421.46,612.80 423.29,613.62 C425.05,614.44 428.02,616.87 429.08,618.34 C430.09,619.79 431.35,623.25 431.62,625.10 C431.88,627.18 431.32,633.24 430.10,636.08 C428.84,638.97 425.61,643.06 424.12,644.62 C422.12,646.63 417.14,649.57 413.72,650.23 C410.57,650.78 404.17,649.85 400.80,648.27 C399.07,647.42 394.45,643.74 392.68,641.76 C390.13,638.87 387.37,634.32 386.59,632.45 C385.84,630.59 384.43,624.88 384.31,622.62 C384.19,619.81 385.13,612.81 386.08,609.26 C387.04,605.83 389.52,600.40 391.35,597.62 C394.62,592.69 403.90,583.77 409.24,580.35 C411.97,578.62 417.63,575.75 420.53,574.70 C423.71,573.58 430.39,572.15 434.54,571.75 C438.12,571.44 443.07,571.87 445.37,572.61 C447.53,573.34 451.35,575.75 452.63,577.33 C454.05,579.15 456.07,584.46 456.64,587.69 C457.15,590.69 457.01,595.77 456.43,598.66 C456.00,600.69 454.07,606.34 452.40,609.29 C451.28,611.23 447.17,616.36 445.17,618.35 C441.04,622.41 432.26,627.16 428.56,628.19 C424.45,629.30 416.27,629.11 412.12,627.76 C407.72,626.29 398.46,620.10 394.59,615.62 C392.48,613.15 388.40,607.20 387.41,605.11 C385.95,601.96 384.71,596.68 384.51,594.84 C384.08,590.56 386.13,579.90 388.49,574.80 C389.98,571.65 396.62,562.28 401.84,558.05 C404.73,555.76 410.52,552.76 414.11,551.56 C416.41,550.83 422.67,550.86 426.17,551.43 C429.24,551.94 436.02,554.30 438.83,555.67 C441.75,557.12 447.27,561.63 447.34,562.00 C447.39,562.39 442.20,572.91 441.35,574.06 C440.47,575.23 438.36,576.41 437.81,576.77 C437.04,577.25 434.58,579.37 433.00,580.79" fill="none" stroke="rgb(0, 0, 0)" stroke-width="100.00" stroke-opacity="1.00" stroke-linejoin="round"/>
<path d="M436.75,562.35 C435.75,561.96 432.62,560.74 431.73,560.38 C428.97,559.23 426.23,555.68 424.68,554.51 C423.42,553.22 421.74,550.41 420.87,548.14 C420.09,546.05 418.44,541.27 417.92,539.95 C417.01,537.51 417.14,536.96 418.71,536.44 C419.81,536.12 425.75,533.02 425.82,532.81 C425.88,532.56 415.87,527.69 415.27,527.13 C411.24,527.11 407.13,527.17 405.62,526.37 C403.60,525.27 401.19,524.81 400.83,524.63 C401.14,523.68 405.19,522.55 408.89,522.63 C409.75,522.65 414.07,522.92 415.62,523.01 C414.32,523.08 410.86,523.25 411.40,523.25 C411.77,523.26 420.48,522.89 423.91,523.15 C426.16,523.35 428.20,523.95 430.56,525.12 C432.89,526.32 437.49,531.63 439.77,534.26" fill="none" stroke="rgb(0, 0, 0)" stroke-width="100.00" stroke-opacity="1.00" stroke-linejoin="round"/>
<path d="M435.99,530.87 C440.15,531.84 448.37,536.32 452.21,538.80 C454.47,540.30 455.33,541.46 455.98,543.87 C456.36,545.44 456.48,546.29 456.35,546.43 C454.85,547.72 440.01,535.97 440.55,535.78 C441.76,535.52 462.37,548.18 462.55,548.85 C462.69,549.39 461.42,553.12 460.85,555.07" fill="none" stroke="rgb(0, 0, 0)" stroke-width="100.00" stroke-opacity="1.00" stroke-linejoin="round"/>
<path d="M456.17,543.84 C461.40,547.70 469.41,556.26 471.40,559.16 C472.63,560.98 474.00,563.54 474.90,565.74 C475.71,567.83 475.84,569.52 475.45,572.25 C475.32,573.06 475.17,574.09 475.00,575.33" fill="none" stroke="rgb(0, 0, 0)" stroke-width="100.00" stroke-opacity="1.00" stroke-linejoin="round"/>
<path d="M466.01,559.50 C465.54,559.12 459.33,554.59 458.06,552.86 C456.88,551.17 456.17,547.06 456.69,547.02 C457.52,546.97 465.50,550.35 466.02,550.60 C466.97,551.09 468.45,553.11 469.43,555.23 C470.28,557.23 472.15,561.64 472.04,561.73 C471.47,562.08 466.66,556.05 465.64,554.26 C464.49,552.22 462.66,547.95 462.37,547.40 C462.82,548.51 468.81,553.60 468.37,553.47 C467.47,553.15 459.43,548.04 459.48,547.87 C459.52,547.80 467.27,550.21 468.60,550.63 C466.89,549.21 463.07,545.97 462.83,546.06 C462.55,546.19 464.18,550.06 464.71,551.26 C465.15,552.29 465.79,553.80 466.34,554.97" fill="none" stroke="rgb(0, 0, 0)" stroke-width="100.00" stroke-opacity="1.00" stroke-linejoin="round"/>
<path d="M467.20,551.36 C467.48,552.43 475.08,564.48 477.13,569.02 C479.94,575.28 482.39,583.14 484.76,592.75 C485.72,596.76 486.79,600.36 486.83,601.98" fill="none" stroke="rgb(0, 0, 0)" stroke-width="100.00" stroke-opacity="1.00" stroke-linejoin="round"/>
<path d="M472.35,559.06 C474.06,560.48 480.44,565.73 481.54,566.69 C483.32,568.27 486.80,572.41 487.92,574.17 C490.63,578.55 492.49,586.83 492.91,590.08 C493.25,592.93 492.29,597.33 492.01,598.58" fill="none" stroke="rgb(0, 0, 0)" stroke-width="100.00" stroke-opacity="1.00" stroke-linejoin="round"/>
<path d="M486.80,576.32 C486.79,576.31 486.82,576.35 486.83,576.37 C491.18,583.71 495.92,593.53 498.90,602.33 C504.57,619.34 506.40,630.11 506.59,634.03" fill="none" stroke="rgb(0, 0, 0)" stroke-width="100.00" stroke-opacity="1.00" stroke-linejoin="round"/>
<path d="M497.84,597.40 C498.74,600.83 502.24,607.11 503.54,609.68 C506.81,616.17 512.30,629.54 512.53,630.23 C513.49,633.25 513.25,643.12 512.78,643.85 C512.64,644.04 512.28,644.07 511.69,643.95" fill="none" stroke="rgb(0, 0, 0)" stroke-width="100.00" stroke-opacity="1.00" stroke-linejoin="round"/>
<path d="M499.31,642.14 C500.41,641.07 501.15,640.52 501.52,640.50 C502.55,640.44 515.63,654.85 518.77,660.29 C520.64,663.57 522.52,668.95 522.87,671.85 C523.16,674.57 523.03,679.99 522.59,681.92 C522.46,682.47 522.16,683.37 521.69,684.65" fill="none" stroke="rgb(0, 0, 0)" stroke-width="100.00" stroke-opacity="1.00" stroke-linejoin="round"/>
<path d="M514.60,642.79 C515.73,647.93 516.90,652.22 517.05,653.40 C517.29,655.43 517.23,658.20 516.89,658.10 C516.58,657.97 514.44,651.49 514.04,650.27" fill="none" stroke="rgb(0, 0, 0)" stroke-width="100.00" stroke-opacity="1.00" stroke-linejoin="round"/>
<path d="M562.38,698.17 C562.38,698.17 561.47,696.94 561.47,696.94 C562.27,701.22 562.87,708.13 562.98,710.21 C563.28,715.97 562.34,724.55 562.21,725.75 C562.36,725.33 562.46,724.98 562.50,724.70 C562.55,724.42 562.60,723.82 562.66,722.89" fill="none" stroke="rgb(0, 0, 0)" stroke-width="20.00" stroke-opacity="1.00" stroke-linejoin="round"/>
<path d="M570.15,689.04 C570.15,689.04 569.22,687.41 569.22,687.41 C569.74,692.52 570.10,697.93 570.10,701.31 C570.09,705.47 568.98,716.64 568.64,719.76 C568.64,719.76 568.97,687.33 568.97,687.33 C570.76,696.77 569.78,711.92 568.88,713.90 C568.33,712.45 566.80,708.45 566.57,707.66 C566.42,707.15 566.24,706.31 566.01,705.14" fill="none" stroke="rgb(0, 0, 0)" stroke-width="20.00" stroke-opacity="1.00" stroke-linejoin="round"/>
<path d="M571.03,681.53 C571.03,681.53 570.65,681.53 570.65,681.53 C569.45,682.65 570.17,695.57 569.88,701.62 C568.94,715.99 566.84,742.45 566.96,743.01 C566.99,743.15 567.37,743.15 567.39,743.01 C567.43,742.69 567.44,741.71 567.41,740.07" fill="none" stroke="rgb(0, 0, 0)" stroke-width="20.00" stroke-opacity="1.00" stroke-linejoin="round"/>
<path d="M564.92,713.68 C564.92,713.68 563.05,711.88 563.05,711.88 C562.69,712.52 564.47,726.81 564.25,736.09 C564.13,741.01 564.13,743.78 564.14,744.67 C564.13,744.72 563.58,738.65 563.56,734.62 C563.57,728.75 565.16,718.05 565.43,718.07 C565.43,718.07 566.38,743.61 566.38,743.61 C566.38,743.61 568.48,717.49 568.48,717.49 C568.48,717.49 569.03,746.94 569.03,746.94 C570.90,738.37 570.98,721.73 570.97,720.01 C570.52,721.85 571.09,729.73 571.05,732.95 C571.01,735.84 570.53,739.53 570.53,739.48 C570.53,739.48 571.19,717.50 571.19,717.50 C571.67,731.23 569.37,745.32 569.18,746.09 C569.18,746.09 568.27,745.20 568.27,745.20 C568.27,745.20 568.93,743.72 568.93,743.72 C568.93,743.72 569.32,743.67 569.32,743.67 C570.25,745.31 566.59,747.05 564.56,747.95 C564.56,747.95 571.58,749.51 571.58,749.51 C571.58,749.51 564.44,752.55 564.44,752.55 C564.44,752.55 573.09,751.86 573.09,751.86 C573.09,751.86 565.94,753.14 565.94,753.14 C565.94,753.14 571.58,752.90 571.58,752.90 C571.58,752.90 567.69,752.01 567.69,752.01" fill="none" stroke="rgb(0, 0, 0)" stroke-width="20.00" stroke-opacity="1.00" stroke-linejoin="round"/>
<path d="M569.51,751.67 C569.26,751.72 568.71,751.67 567.64,751.46 C565.39,751.06 558.26,750.89 556.51,750.69 C557.68,748.69 566.58,745.39 567.55,745.12 C567.55,745.12 568.60,748.79 568.60,748.79 C568.60,748.79 571.27,746.44 571.27,746.44 C571.27,746.44 570.96,749.95 570.96,749.95 C570.96,749.95 572.18,746.57 572.18,746.57 C573.04,748.29 572.24,749.93 571.24,750.49 C571.17,750.52 563.40,750.84 560.06,750.46 C557.42,750.14 552.67,748.59 551.62,747.08 C550.68,745.64 551.18,741.72 552.39,739.28 C553.56,736.99 555.87,734.62 556.61,734.03 C554.70,739.64 549.39,745.29 548.33,746.04 C548.03,743.65 548.02,742.37 548.43,741.29 C551.01,734.51 556.43,724.78 557.84,723.40 C558.31,723.93 558.38,724.78 557.98,726.74 C556.75,732.53 553.85,741.36 552.83,744.44 C552.83,744.44 558.72,718.43 558.72,718.43 C560.07,720.46 557.84,742.75 557.66,744.48 C557.66,744.48 557.58,728.58 557.58,728.58 C557.58,728.58 556.31,747.00 556.31,747.00 C556.04,746.81 553.14,743.36 551.52,742.29 C547.23,739.55 537.00,738.23 536.35,738.12 C535.26,737.94 534.64,737.51 534.28,736.88 C535.76,735.34 538.78,734.08 541.71,733.16 C547.08,731.48 548.09,731.20 549.24,731.00 C549.24,731.00 530.03,738.53 530.03,738.53 C530.03,738.53 553.91,732.02 553.91,732.02 C543.83,737.43 526.42,738.45 523.96,738.12 C526.03,736.77 532.26,735.53 535.89,734.81 C537.46,734.50 539.79,734.05 540.55,733.92 C536.91,734.66 524.72,735.35 517.23,734.38 C513.64,733.87 505.72,732.92 505.60,732.83 C505.41,732.67 506.79,731.83 508.76,730.74" fill="none" stroke="rgb(0, 0, 0)" stroke-width="20.00" stroke-opacity="1.00" stroke-linejoin="round"/>
<path d="M273.63,701.86 C273.63,701.86 272.76,700.05 272.76,700.05 C272.43,700.51 268.10,710.42 265.42,715.03 C262.63,719.70 262.00,720.65 261.59,721.15 C261.59,721.15 263.10,692.95 263.10,692.95 C262.22,693.44 260.58,698.04 259.64,701.39 C256.09,714.40 255.25,721.96 255.23,722.02 C255.24,720.10 254.65,706.32 255.75,699.82 C255.81,699.47 256.47,695.99 256.47,695.21 C253.28,701.03 251.54,719.79 251.85,721.42 C252.28,720.98 252.96,718.73 253.34,714.74 C253.42,713.93 253.86,700.98 254.37,696.27 C254.04,701.80 255.63,722.70 256.23,722.72 C256.35,722.71 256.70,722.47 257.28,722.00" fill="none" stroke="rgb(0, 0, 0)" stroke-width="20.00" stroke-opacity="1.00" stroke-linejoin="round"/>
<path d="M258.62,690.34 C258.62,690.34 258.46,689.84 258.46,689.84 C258.46,689.84 258.15,689.68 258.15,689.68 C257.64,689.82 256.34,692.28 255.95,694.06 C255.34,697.00 253.31,739.22 253.24,739.30 C253.16,739.38 252.87,739.40 252.38,739.35" fill="none" stroke="rgb(0, 0, 0)" stroke-width="20.00" stroke-opacity="1.00" stroke-linejoin="round"/>
<path d="M256.44,714.58 C256.44,714.58 256.37,714.53 256.37,714.53 C256.05,714.55 255.47,714.75 255.20,715.10 C253.89,716.92 253.45,730.27 253.38,735.83 C253.29,744.14 253.04,744.70 252.81,745.01 C251.76,743.03 252.22,734.85 253.60,727.30 C253.97,725.37 254.32,723.07 254.23,722.43 C254.23,722.43 250.79,743.41 250.79,743.41 C250.79,743.41 251.30,723.28 251.30,723.28 C251.30,723.38 251.54,741.12 251.95,741.62 C252.32,742.04 252.61,741.82 252.82,740.97 C252.89,740.66 252.86,739.98 252.72,738.91" fill="none" stroke="rgb(0, 0, 0)" stroke-width="20.00" stroke-opacity="1.00" stroke-linejoin="round"/>
<path d="M252.76,733.28 C252.76,733.28 252.76,733.04 252.76,733.04 C252.76,733.04 252.63,732.89 252.63,732.89 C251.88,733.83 251.16,741.65 251.20,747.49 C251.22,749.68 251.33,749.97 251.42,750.11 C251.42,750.11 252.11,749.30 252.11,749.30 C252.11,749.30 253.32,749.82 253.32,749.82 C253.32,749.82 251.22,751.14 251.22,751.14 C251.22,751.14 253.70,751.10 253.70,751.10 C253.70,751.10 250.40,751.11 250.40,751.11 C250.40,751.11 254.56,750.17 254.56,750.17 C254.56,750.17 249.57,750.84 249.57,750.84 C250.55,750.84 256.40,749.60 257.36,749.46 C258.09,749.36 265.43,748.90 267.32,748.66 C267.32,748.66 255.33,749.13 255.33,749.13 C255.33,749.13 271.20,747.61 271.20,747.61 C271.20,747.61 260.48,749.91 260.48,749.91 C260.48,749.91 268.60,748.53 268.60,748.53 C268.60,748.53 262.38,749.82 262.38,749.82 C262.38,749.82 271.94,747.37 271.94,747.37 C271.74,747.22 267.00,745.91 265.45,744.71 C263.79,743.37 262.08,739.58 261.82,737.29 C261.71,736.09 261.95,732.83 262.50,731.68 C262.50,731.68 263.94,742.85 263.94,742.85 C264.01,740.86 263.66,734.19 263.74,732.13 C263.96,727.16 265.42,724.06 265.65,723.65 C266.53,724.63 266.53,727.30 266.42,729.16 C266.18,732.62 264.44,740.20 264.34,740.36 C264.34,740.36 268.48,724.18 268.48,724.18 C269.09,724.75 271.69,737.58 272.95,739.28 C274.08,740.73 276.76,740.94 277.70,740.20 C277.94,739.09 277.23,737.99 276.62,737.50 C275.86,736.90 273.85,736.13 272.93,736.10 C271.47,736.08 270.09,738.85 270.70,740.30 C271.12,741.23 272.46,742.54 273.40,742.87 C275.55,743.58 282.64,742.15 283.12,741.86 C283.12,741.86 272.69,744.35 272.69,744.35 C272.69,744.35 287.41,744.34 287.41,744.34 C286.92,744.59 280.51,746.79 277.64,747.31 C277.37,747.35 269.23,748.08 268.01,748.70 C267.90,748.76 267.80,748.84 267.70,748.94 C267.70,748.94 278.58,747.58 278.58,747.58 C278.58,747.58 273.46,748.25 273.46,748.25 C273.46,748.25 299.21,744.13 299.21,744.13 C299.21,744.13 287.21,747.40 287.21,747.40 C287.21,747.40 299.36,745.42 299.36,745.42 C299.36,745.42 282.01,749.44 282.01,749.44 C282.01,749.44 294.09,747.69 294.09,747.69 C294.09,747.69 280.49,750.45 280.49,750.45 C280.49,750.45 286.30,748.93 286.30,748.93 C286.30,748.93 281.60,749.90 281.60,749.90 C282.19,750.03 302.76,746.61 303.90,746.27 C305.14,745.90 308.53,743.88 308.62,743.85 C308.62,743.85 299.82,747.27 299.82,747.27 C299.82,747.27 315.18,744.25 315.18,744.25 C315.18,744.25 310.17,745.33 310.17,745.33" fill="none" stroke="rgb(0, 0, 0)" stroke-width="20.00" stroke-opacity="1.00" stroke-linejoin="round"/>
<path d="M323.25,743.29 C323.35,743.27 323.41,743.25 323.45,743.24 C323.48,743.23 323.54,743.20 323.61,743.16 C323.46,743.12 322.71,743.11 321.84,743.21 C315.00,744.18 301.36,745.75 300.39,745.88 C300.39,745.88 320.42,744.92 320.42,744.92 C320.42,744.92 294.55,749.94 294.55,749.94 C294.55,749.94 314.21,747.61 314.21,747.61 C314.21,747.61 300.81,749.55 300.81,749.55 C300.81,749.55 326.71,747.32 326.71,747.32 C326.71,747.32 312.63,748.58 312.63,748.58 C312.63,748.58 339.35,747.47 339.35,747.47 C339.35,747.47 323.19,747.21 323.19,747.21 C323.19,747.21 358.81,745.53 358.81,745.53 C358.81,745.53 342.23,746.92 342.23,746.92 C342.23,746.92 368.16,745.66 368.16,745.66 C368.16,745.66 336.90,748.50 336.90,748.50 C336.90,748.50 356.76,746.88 356.76,746.88 C356.76,746.88 329.97,749.25 329.97,749.25 C329.97,749.25 348.52,747.40 348.52,747.40 C347.90,748.47 327.86,749.48 327.51,749.49 C341.03,748.37 362.02,746.79 369.48,746.34 C370.20,746.31 370.93,746.28 371.66,746.25" fill="none" stroke="rgb(0, 0, 0)" stroke-width="20.00" stroke-opacity="1.00" stroke-linejoin="round"/>
<path d="M361.52,745.87 C361.22,745.75 360.97,745.67 360.76,745.63 C358.34,745.17 345.57,745.95 344.45,746.33 C344.45,746.33 371.47,746.62 371.47,746.62 C371.47,746.62 348.57,747.68 348.57,747.68 C348.57,747.68 366.30,746.65 366.30,746.65 C366.30,746.65 354.45,748.42 354.45,748.42 C356.92,748.57 371.88,747.39 375.92,747.33 C379.34,747.29 400.70,747.42 401.08,747.05 C401.08,747.05 380.79,746.06 380.79,746.06 C381.21,745.99 395.40,745.62 402.83,745.52 C410.27,745.60 425.48,746.00 431.23,745.03 C432.55,744.80 433.40,744.63 433.79,744.53 C434.04,744.46 434.29,744.34 434.53,744.18" fill="none" stroke="rgb(0, 0, 0)" stroke-width="20.00" stroke-opacity="1.00" stroke-linejoin="round"/>
<path d="M394.32,749.17 C394.23,749.17 394.06,749.20 393.81,749.26 C392.68,749.53 392.20,749.70 392.39,749.77 C393.38,750.06 434.95,747.52 449.69,746.89 C453.68,746.73 457.97,746.21 459.22,745.98 C459.22,745.98 455.87,746.31 455.87,746.31" fill="none" stroke="rgb(0, 0, 0)" stroke-width="20.00" stroke-opacity="1.00" stroke-linejoin="round"/>
<path d="M427.46,746.16 C426.35,746.30 423.30,746.67 422.85,746.74 C422.55,746.78 422.19,746.86 421.76,746.95 C425.58,747.34 466.34,744.92 475.67,744.97 C483.03,745.12 500.24,745.50 500.89,745.20 C500.89,744.58 500.82,744.28 500.31,744.14 C496.83,743.23 458.78,746.12 446.94,747.10 C447.36,747.96 491.45,745.37 491.43,745.32 C491.29,745.06 490.57,744.77 489.30,744.46 C488.89,744.37 488.35,744.32 487.65,744.34" fill="none" stroke="rgb(0, 0, 0)" stroke-width="20.00" stroke-opacity="1.00" stroke-linejoin="round"/>
<path d="M453.74,747.90 C453.74,747.90 450.00,748.77 450.00,748.77 C450.00,748.77 493.42,746.63 493.42,746.63 C492.94,745.88 489.54,745.57 486.02,745.69 C456.99,746.60 455.07,746.84 455.04,746.91 C455.04,746.91 475.38,748.17 475.38,748.17 C475.38,748.17 470.49,747.61 470.49,747.61 C471.35,747.01 488.18,745.19 494.39,745.07 C497.12,745.02 507.40,745.45 511.67,745.78 C514.80,746.02 516.22,746.06 516.87,745.94" fill="none" stroke="rgb(0, 0, 0)" stroke-width="20.00" stroke-opacity="1.00" stroke-linejoin="round"/>
<path d="M502.84,744.39 C499.75,744.95 492.69,746.25 491.70,746.56 C491.44,746.64 491.05,746.79 490.51,747.03 C490.51,747.03 519.59,747.38 519.59,747.38 C519.59,747.38 492.42,748.10 492.42,748.10 C492.42,748.10 530.46,746.73 530.46,746.73 C530.46,746.73 497.76,748.31 497.76,748.31 C499.53,748.17 536.15,747.62 536.77,747.58 C537.31,747.53 538.40,747.40 540.06,747.16" fill="none" stroke="rgb(0, 0, 0)" stroke-width="20.00" stroke-opacity="1.00" stroke-linejoin="round"/>
<path d="M554.16,745.75 C554.16,745.75 554.21,745.85 554.21,745.85 C553.90,746.03 553.08,746.24 551.23,746.55 C546.42,747.36 534.55,748.21 531.86,748.39 C531.86,748.39 559.30,748.86 559.30,748.86 C559.30,748.86 543.52,749.29 543.52,749.29 C543.52,749.29 554.87,747.79 554.87,747.79 C554.87,747.79 540.01,748.98 540.01,748.98 C540.01,748.98 547.40,748.42 547.40,748.42 C547.40,748.42 539.68,748.44 539.68,748.44" fill="none" stroke="rgb(0, 0, 0)" stroke-width="20.00" stroke-opacity="1.00" stroke-linejoin="round"/>
<path d="M549.56,747.04 C548.57,747.14 548.12,747.14 545.77,747.05 C542.71,746.94 522.61,746.66 514.30,746.53 C494.37,745.94 488.78,743.42 488.06,742.92 C488.65,741.75 489.44,741.13 491.00,740.74 C494.50,739.88 514.43,737.95 515.30,737.89 C515.31,737.98 498.97,739.50 491.55,740.11 C482.90,740.68 467.92,740.67 464.32,740.26 C456.15,739.26 455.21,738.64 454.01,737.50 C456.10,736.02 466.92,734.05 478.23,732.99 C492.69,731.86 520.24,730.59 520.54,730.53 C519.44,730.52 481.77,731.33 463.77,730.86 C446.39,730.03 432.92,728.02 430.12,726.95 C432.31,725.56 437.09,724.66 442.31,723.81 C447.74,723.02 505.39,715.96 507.73,715.36 C498.08,715.61 433.31,722.80 416.85,724.64 C410.60,725.30 403.05,726.11 400.99,725.74 C403.06,724.32 435.16,714.16 447.88,710.59 C454.89,708.76 468.70,705.38 470.98,705.46 C469.26,706.59 419.54,726.11 415.33,727.56 C412.29,728.61 410.34,729.12 409.50,729.29 C409.50,729.29 407.91,728.23 407.91,728.23 C409.80,725.38 420.70,717.89 427.50,713.82 C436.87,708.31 463.85,695.54 472.66,692.44 C472.55,692.60 441.58,709.11 429.11,715.97 C411.75,725.94 405.05,730.94 404.74,731.27 C404.74,731.27 404.61,732.67 404.61,732.67 C404.61,732.67 441.73,723.78 441.73,723.78 C441.73,723.78 397.53,731.29 397.53,731.29 C397.53,731.29 441.44,724.88 441.44,724.88 C435.69,726.10 422.35,728.88 414.77,730.44 C395.71,734.05 390.47,731.78 389.06,730.88 C388.63,729.07 391.05,725.83 393.10,724.02 C396.48,721.08 404.42,716.14 412.66,711.60 C420.46,707.48 431.77,702.11 438.53,699.16 C454.52,692.73 474.47,685.82 477.46,685.40 C477.46,685.40 477.17,686.46 477.17,686.46 C469.64,691.94 431.74,710.79 430.01,711.54 C431.37,709.62 435.66,706.99 439.96,704.47 C454.56,696.07 481.06,680.83 483.80,678.78 C481.91,678.11 480.89,677.94 479.68,678.25 C450.84,685.69 444.63,687.13 441.35,687.26 C441.35,687.26 440.85,685.95 440.85,685.95 C443.33,683.43 453.38,678.99 455.43,679.54 C456.50,679.85 457.40,680.62 457.82,681.45" fill="none" stroke="rgb(0, 0, 0)" stroke-width="20.00" stroke-opacity="1.00" stroke-linejoin="round"/>
<path d="M490.80,516.08 C489.92,515.86 488.46,515.16 488.09,514.50 C487.75,513.91 487.23,511.49 486.33,510.63 C482.98,507.47 470.84,504.68 469.15,504.20 C469.15,504.20 488.31,509.17 488.31,509.17 C488.31,509.17 469.72,503.69 469.72,503.69 C469.72,503.69 483.59,507.88 483.59,507.88 C483.59,507.88 469.97,502.14 469.97,502.14 C469.97,502.14 482.66,504.41 482.66,504.41 C482.66,504.41 468.92,499.51 468.92,499.51 C468.92,499.51 470.38,499.80 470.38,499.80 C470.38,499.80 464.02,496.71 464.02,496.71 C464.02,496.71 470.77,498.73 470.77,498.73 C470.77,498.73 460.76,494.29 460.76,494.29 C460.76,494.29 466.89,496.61 466.89,496.61 C462.23,496.36 452.89,492.30 450.59,490.78 C450.59,490.78 461.16,493.58 461.16,493.58 C461.16,493.58 447.48,488.31 447.48,488.31 C447.48,488.31 461.95,490.67 461.95,490.67 C461.95,490.67 450.16,486.43 450.16,486.43 C450.16,486.43 454.10,487.92 454.10,487.92 C453.84,487.52 447.71,485.42 445.76,484.78 C439.82,482.74 420.77,480.29 419.97,479.93" fill="none" stroke="rgb(0, 0, 0)" stroke-width="20.00" stroke-opacity="1.00" stroke-linejoin="round"/>
<path d="M420.60,482.99 C420.70,482.96 420.77,482.94 420.81,482.91 C420.85,482.88 420.91,482.82 421.00,482.72 C420.07,481.78 415.61,480.43 411.06,479.27 C409.71,478.94 407.66,478.42 405.75,477.90 C405.75,477.90 421.46,478.20 421.46,478.20 C421.46,478.20 411.39,476.70 411.39,476.70 C411.39,476.70 419.97,476.64 419.97,476.64 C419.97,476.64 409.26,476.82 409.26,476.82 C409.26,476.82 412.61,476.59 412.61,476.59 C412.61,476.59 386.23,478.70 386.23,478.70 C386.23,478.70 397.81,477.38 397.81,477.38" fill="none" stroke="rgb(0, 0, 0)" stroke-width="20.00" stroke-opacity="1.00" stroke-linejoin="round"/>
<path d="M411.32,478.02 C411.23,477.96 409.76,477.69 408.55,477.57 C404.39,477.16 392.14,477.99 384.80,479.95 C379.19,481.47 365.78,486.66 361.22,489.13 C358.25,490.79 350.35,495.33 350.33,495.78 C350.33,496.01 350.71,496.46 351.48,497.14" fill="none" stroke="rgb(0, 0, 0)" stroke-width="20.00" stroke-opacity="1.00" stroke-linejoin="round"/>
<path d="M368.26,490.50 C367.76,490.59 367.40,490.67 367.17,490.72 C363.46,491.68 355.41,495.87 347.38,500.72 C342.61,503.70 331.54,511.56 325.39,517.05 C320.54,521.51 312.28,530.05 311.70,531.69 C311.28,532.91 312.32,532.91 313.19,532.05" fill="none" stroke="rgb(0, 0, 0)" stroke-width="20.00" stroke-opacity="1.00" stroke-linejoin="round"/>
<path d="M359.55,496.38 C359.55,496.38 360.75,494.54 360.75,494.54 C358.90,494.08 349.58,499.28 342.03,504.44 C335.01,509.32 330.72,512.64 329.18,513.84 C329.12,513.86 341.57,503.81 347.64,499.36 C350.99,496.97 355.39,493.85 356.43,493.12 C356.43,493.12 326.70,514.16 326.70,514.16 C326.70,514.16 342.99,503.71 342.99,503.71" fill="none" stroke="rgb(0, 0, 0)" stroke-width="20.00" stroke-opacity="1.00" stroke-linejoin="round"/>
<path d="M350.33,497.97 C350.36,497.96 350.28,497.94 350.25,497.95 C348.88,498.33 346.42,499.38 344.54,500.48 C339.50,503.46 328.51,512.84 323.72,517.86 C320.66,521.08 311.35,531.69 310.45,532.71 C310.45,532.71 319.66,521.69 319.66,521.69 C314.92,525.87 308.83,534.72 307.11,537.25 C307.11,537.25 311.59,529.97 311.59,529.97 C311.59,529.97 305.24,539.48 305.24,539.48 C305.24,539.48 306.37,537.25 306.37,537.25" fill="none" stroke="rgb(0, 0, 0)" stroke-width="20.00" stroke-opacity="1.00" stroke-linejoin="round"/>
<path d="M316.43,529.82 C316.41,529.82 316.38,529.82 316.32,529.82 C315.49,529.97 313.62,531.14 311.21,533.63 C310.27,534.62 301.90,544.12 301.29,544.77 C301.29,544.77 306.74,538.44 306.74,538.44 C306.74,538.44 306.10,543.65 306.10,543.65" fill="none" stroke="rgb(0, 0, 0)" stroke-width="20.00" stroke-opacity="1.00" stroke-linejoin="round"/>
<path d="M304.79,736.92 C304.79,736.92 304.87,736.65 304.87,736.65 C304.87,736.65 304.69,736.26 304.69,736.26 C302.28,735.58 287.05,735.92 281.19,736.33 C276.61,736.66 274.28,736.98 273.66,737.10 C273.66,737.10 313.89,732.18 313.89,732.18 C311.47,733.80 288.69,735.94 284.78,736.30 C285.44,736.81 296.65,736.08 307.42,734.95 C315.39,733.94 332.80,731.40 333.80,731.27 C333.80,731.27 325.47,731.87 325.47,731.87 C325.47,731.87 325.78,731.47 325.78,731.47" fill="none" stroke="rgb(0, 0, 0)" stroke-width="20.00" stroke-opacity="1.00" stroke-linejoin="round"/>
<path d="M406.85,733.23 C408.55,733.18 409.81,733.10 410.62,732.90 C416.87,731.20 429.91,729.46 436.83,729.04 C441.18,728.80 442.17,728.90 443.47,729.07 C443.47,729.07 427.78,733.54 427.78,733.54 C427.78,733.54 446.95,731.03 446.95,731.03 C446.31,730.38 439.90,731.15 437.00,731.52 C431.37,732.34 422.95,734.35 422.13,735.04 C422.13,735.04 451.74,732.14 451.74,732.14 C448.60,732.48 443.67,732.77 437.91,732.92 C434.70,732.98 430.73,733.04 429.95,733.04" fill="none" stroke="rgb(0, 0, 0)" stroke-width="20.00" stroke-opacity="1.00" stroke-linejoin="round"/>
<path d="M274.90,744.56 C274.21,745.06 270.65,745.65 264.89,746.74 C255.09,748.67 253.63,749.59 253.48,749.83 C253.48,749.83 271.21,748.24 271.21,748.24 C271.21,748.24 259.24,749.91 259.24,749.91 C259.24,749.91 271.61,749.04 271.61,749.04 C271.61,749.04 255.46,750.47 255.46,750.47 C255.46,750.47 268.25,750.18 268.25,750.18 C268.25,750.18 255.24,751.19 255.24,751.19 C255.24,751.19 267.89,750.43 267.89,750.43 C267.89,750.43 260.91,751.91 260.91,751.91 C263.16,752.25 280.17,751.41 286.14,751.79 C296.42,752.51 304.41,751.54 307.56,751.60 C311.32,751.69 319.91,751.85 321.73,751.83 C322.69,751.82 330.41,751.29 333.22,751.06 C333.70,751.02 334.66,750.98 336.12,750.94" fill="none" stroke="rgb(0, 0, 0)" stroke-width="20.00" stroke-opacity="1.00" stroke-linejoin="round"/>
<path d="M330.24,750.57 C329.10,750.79 326.05,751.35 324.87,751.52 C322.79,751.80 311.52,752.48 310.51,752.57 C310.51,752.57 336.98,750.77 336.98,750.77 C336.98,750.77 319.60,750.46 319.60,750.46 C322.70,751.17 365.76,748.95 368.06,748.73 C370.58,748.49 372.02,748.41 373.00,748.44 C373.00,748.44 339.01,749.79 339.01,749.79 C339.01,749.79 367.65,747.75 367.65,747.75 C367.65,747.75 356.51,748.10 356.51,748.10 C356.51,748.10 376.53,747.40 376.53,747.40 C373.97,748.07 363.17,747.58 354.91,748.34 C352.27,748.59 347.53,749.41 346.32,749.63 C346.32,749.63 392.09,748.72 392.09,748.72 C392.09,748.72 374.44,748.60 374.44,748.60 C385.40,748.61 394.17,748.27 396.21,748.01 C396.73,747.94 397.73,747.78 399.20,747.52" fill="none" stroke="rgb(0, 0, 0)" stroke-width="20.00" stroke-opacity="1.00" stroke-linejoin="round"/>
<path d="M498.01,739.49 C498.01,739.49 501.35,740.06 501.35,740.06 C501.35,740.06 480.84,743.46 480.84,743.46 C480.84,743.46 503.80,745.01 503.80,745.01 C503.80,745.01 483.26,746.74 483.26,746.74 C483.26,746.74 500.39,746.57 500.39,746.57 C498.85,747.81 489.22,748.31 486.72,748.30 C486.72,748.30 501.40,747.51 501.40,747.51 C501.40,747.51 484.86,748.60 484.86,748.60 C484.86,748.60 488.70,748.70 488.70,748.70 C488.70,748.70 478.75,749.99 478.75,749.99 C478.75,749.99 496.21,748.60 496.21,748.60 C491.97,748.99 484.48,749.03 484.93,748.54 C485.01,748.46 485.80,748.27 487.29,747.98" fill="none" stroke="rgb(0, 0, 0)" stroke-width="20.00" stroke-opacity="1.00" stroke-linejoin="round"/>
</g>
</svg>
